<?xml version="1.0" encoding="UTF-8" standalone="no"?> <svg xmlns:dc="http://purl.org/dc/elements/1.1/" xmlns:cc="http://creativecommons.org/ns#" xmlns:rdf="http://www.w3.org/1999/02/22-rdf-syntax-ns#" xmlns:svg="http://www.w3.org/2000/svg" xmlns="http://www.w3.org/2000/svg" xmlns:sodipodi="http://sodipodi.sourceforge.net/DTD/sodipodi-0.dtd" xmlns:inkscape="http://www.inkscape.org/namespaces/inkscape" inkscape:version="1.0 (4035a4fb49, 2020-05-01)" height="50" width="180" sodipodi:docname="PromptPay.svg" id="svg40" version="1.1" viewBox="0 0 180 50.000001"><metadata id="metadata44"></metadata><defs id="defs4"><style id="style2">.b212354b-461f-4502-a52d-fd77ff8a4ca0{fill:#003d6b;}</style></defs><g style="stroke-width:4.303" transform="matrix(0.232396,0,0,0.232396,15.116199,3e-7)" data-name="Layer 2" id="bf137c09-dfa1-40b5-8dc3-d0a51e5d08fb"><g style="stroke-width:4.303" data-name="Layer 1" id="afc82774-a91f-4c0a-8442-16c01336e268"><path style="stroke-width:4.303" id="path6" d="m 413,39.5 a 4,4 0 0 1 -2.73,-0.92 3.19,3.19 0 0 1 -1.04,-2.58 3.32,3.32 0 0 1 1.13,-2.69 4.94,4.94 0 0 1 3.28,-1 5.59,5.59 0 0 1 4,1.19 4.27,4.27 0 0 1 1.25,3.25 v 8.59 l 3.69,-10 h 2.61 l 3.65,10 V 32.76 h 5.84 V 53.58 H 428.8 V 53 l -4.95,-13.29 -5,13.33 V 53.6 H 413 Z m 1.67,-2 a 2.62,2.62 0 0 0 0,-3.13 1.75,1.75 0 0 0 -1.32,-0.54 1.83,1.83 0 0 0 -1.35,0.54 2.54,2.54 0 0 0 0,3.13 1.83,1.83 0 0 0 1.35,0.54 1.75,1.75 0 0 0 1.35,-0.51 z" class="b212354b-461f-4502-a52d-fd77ff8a4ca0"></path><path style="stroke-width:4.303" id="path8" d="m 451.07,53 a 3.36,3.36 0 0 1 -1.07,-2.69 3.13,3.13 0 0 1 1.09,-2.47 4,4 0 0 1 2.71,-1 V 43.83 A 5,5 0 0 0 453.51,41.91 1.63,1.63 0 0 0 452.4,41 8.3,8.3 0 0 0 450.03,40.75 c -1,0 -2.16,0 -3.47,0.12 -1.31,0.12 -2.41,0.17 -3.25,0.3 v -1.78 a 7.05,7.05 0 0 1 1.84,-5.18 c 1.23,-1.24 3.3,-1.86 6.19,-1.86 a 8.49,8.49 0 0 1 1.54,0.13 c 0.48,0.09 0.93,0.18 1.34,0.28 a 8.29,8.29 0 0 0 2.23,0.34 4.81,4.81 0 0 0 1.61,-0.26 4.92,4.92 0 0 0 1.54,-1 l 1.58,2.45 a 5.39,5.39 0 0 1 -3.62,1.39 9.25,9.25 0 0 1 -1.51,-0.11 c -0.43,-0.08 -0.91,-0.19 -1.44,-0.34 a 8.89,8.89 0 0 0 -2.66,-0.42 3.71,3.71 0 0 0 -3.72,4 c 1.43,0 2.47,-0.08 3.11,-0.08 a 21,21 0 0 1 4.73,0.42 4.42,4.42 0 0 1 2.63,1.61 5.83,5.83 0 0 1 0.9,3.51 v 5.27 q 0,4.44 -5.22,4.44 A 5,5 0 0 1 451.07,53 Z m 4.4,-1.09 a 2.25,2.25 0 0 0 0.52,-1.58 2.11,2.11 0 0 0 -0.52,-1.55 1.78,1.78 0 0 0 -1.32,-0.53 1.86,1.86 0 0 0 -1.35,0.53 2.07,2.07 0 0 0 -0.54,1.55 2.21,2.21 0 0 0 0.54,1.58 1.81,1.81 0 0 0 1.35,0.56 1.73,1.73 0 0 0 1.32,-0.54 z" class="b212354b-461f-4502-a52d-fd77ff8a4ca0"></path><path style="stroke-width:4.303" id="path10" d="m 448.17,26.57 a 5.47,5.47 0 0 0 1.4,-0.66 5.76,5.76 0 0 0 1.29,-1 3.1,3.1 0 0 1 -2.43,-1 3.33,3.33 0 0 1 -0.76,-2.15 3.23,3.23 0 0 1 0.92,-2.3 3.68,3.68 0 0 1 2.8,-1 4.37,4.37 0 0 1 3,1 3.13,3.13 0 0 1 1.07,2.41 3.85,3.85 0 0 1 -0.76,2.54 5.55,5.55 0 0 1 -1.85,1.45 c 2.38,-0.15 4.07,-0.71 5.05,-1.69 a 6.55,6.55 0 0 0 1.71,-4.29 h 4.15 a 7.49,7.49 0 0 1 -3.2,6 12.91,12.91 0 0 1 -7.52,2 h -4.91 z m 4.3,-3.48 a 2,2 0 0 0 0.46,-1.38 2,2 0 0 0 -0.46,-1.37 1.58,1.58 0 0 0 -1.23,-0.51 1.51,1.51 0 0 0 -1.19,0.53 2.23,2.23 0 0 0 0,2.71 1.51,1.51 0 0 0 1.19,0.53 1.58,1.58 0 0 0 1.23,-0.51 z" class="b212354b-461f-4502-a52d-fd77ff8a4ca0"></path><path style="stroke-width:4.303" id="path12" d="m 472.87,44.13 a 3.84,3.84 0 0 1 1.29,-2.9 5.42,5.42 0 0 1 3.84,-1.23 5.22,5.22 0 0 1 3.35,1 3.62,3.62 0 0 1 0.17,5.2 3.9,3.9 0 0 1 -2.78,1 v 4.48 h 4.38 a 2.12,2.12 0 0 0 2.38,-2.41 V 38.94 a 4.63,4.63 0 0 0 -1.35,-3.37 5.16,5.16 0 0 0 -3.88,-1.38 7.8,7.8 0 0 0 -4,1 5.21,5.21 0 0 0 -2.34,2.9 h -2.11 a 7,7 0 0 1 3.24,-4.18 12.32,12.32 0 0 1 6.52,-1.54 13.42,13.42 0 0 1 7,1.64 5.45,5.45 0 0 1 2.71,5 V 49.1 a 4.28,4.28 0 0 1 -1.23,3.45 5.69,5.69 0 0 1 -3.73,1 h -13.46 z m 6.84,1.08 a 2.15,2.15 0 0 0 0.54,-1.57 2.21,2.21 0 0 0 -0.54,-1.58 1.77,1.77 0 0 0 -1.34,-0.56 1.75,1.75 0 0 0 -1.33,0.56 2.29,2.29 0 0 0 -0.51,1.58 2.23,2.23 0 0 0 0.51,1.57 1.77,1.77 0 0 0 1.33,0.54 1.79,1.79 0 0 0 1.34,-0.54 z" class="b212354b-461f-4502-a52d-fd77ff8a4ca0"></path><path style="stroke-width:4.303" id="path14" d="m 522,32.76 v 20.82 h -5.3 a 19.57,19.57 0 0 0 -2.52,-3.2 12.7,12.7 0 0 0 -3.86,-2.78 v 1.5 a 4.83,4.83 0 0 1 -1.32,3.64 5.93,5.93 0 0 1 -4.16,1.26 4.05,4.05 0 0 1 -4.65,-4.33 4.55,4.55 0 0 1 1,-2.86 5,5 0 0 1 3.31,-1.62 V 39.5 a 4,4 0 0 1 -2.73,-0.92 3.19,3.19 0 0 1 -1.11,-2.58 3.32,3.32 0 0 1 1.13,-2.69 4.94,4.94 0 0 1 3.28,-1 5.59,5.59 0 0 1 4,1.19 4.27,4.27 0 0 1 1.25,3.25 v 8.92 a 14.38,14.38 0 0 1 3.54,1.87 10.58,10.58 0 0 1 2.3,2.13 v -17 z m -17.81,19 a 2.56,2.56 0 0 0 0.29,-1.41 v -3.62 a 2.75,2.75 0 0 0 -2.54,2.86 3.87,3.87 0 0 0 0.39,1.83 1.13,1.13 0 0 0 1,0.73 1,1 0 0 0 0.84,-0.39 z m -0.71,-14.23 a 1.83,1.83 0 0 0 1.35,0.54 1.75,1.75 0 0 0 1.32,-0.54 2.62,2.62 0 0 0 0,-3.13 1.75,1.75 0 0 0 -1.32,-0.54 1.83,1.83 0 0 0 -1.35,0.54 2.54,2.54 0 0 0 0,3.13 z" class="b212354b-461f-4502-a52d-fd77ff8a4ca0"></path><path style="stroke-width:4.303" id="path16" d="M 535.49,52.7 A 5,5 0 0 1 534.3,49.18 V 32.76 h 5.84 V 47 a 4.3,4.3 0 0 1 2.75,0.84 3,3 0 0 1 1.05,2.47 3.36,3.36 0 0 1 -1.15,2.69 5,5 0 0 1 -3.3,1 c -1.87,0 -3.21,-0.46 -4,-1.3 z m 5.61,-0.77 a 2.21,2.21 0 0 0 0.54,-1.58 2.07,2.07 0 0 0 -0.54,-1.55 1.86,1.86 0 0 0 -1.34,-0.53 1.8,1.8 0 0 0 -1.33,0.53 2.11,2.11 0 0 0 -0.52,1.55 2.25,2.25 0 0 0 0.52,1.58 1.75,1.75 0 0 0 1.33,0.56 1.8,1.8 0 0 0 1.34,-0.56 z" class="b212354b-461f-4502-a52d-fd77ff8a4ca0"></path><path style="stroke-width:4.303" id="path18" d="m 556.2,39.5 a 4,4 0 0 1 -2.72,-0.92 3.2,3.2 0 0 1 -1.08,-2.58 3.35,3.35 0 0 1 1.13,-2.69 5,5 0 0 1 3.29,-1 5.61,5.61 0 0 1 4,1.19 4.27,4.27 0 0 1 1.18,3.29 v 8.59 l 3.69,-10 h 2.62 l 3.65,10 V 32.76 h 5.84 V 53.58 H 572 V 53 L 567,39.71 562,53 v 0.56 h -5.8 z m 1.68,-2 a 2.66,2.66 0 0 0 0,-3.13 1.77,1.77 0 0 0 -1.33,-0.54 1.79,1.79 0 0 0 -1.34,0.54 2.54,2.54 0 0 0 0,3.13 1.79,1.79 0 0 0 1.34,0.54 1.77,1.77 0 0 0 1.33,-0.51 z" class="b212354b-461f-4502-a52d-fd77ff8a4ca0"></path><path style="stroke-width:4.303" id="path20" d="m 587.14,46.73 q 0,-2.86 3.53,-4 a 6.41,6.41 0 0 1 -2.78,-2 5.25,5.25 0 0 1 -1.1,-3.37 4.54,4.54 0 0 1 1.54,-3.79 6.77,6.77 0 0 1 4.3,-1.22 5.78,5.78 0 0 1 3.44,0.9 2.89,2.89 0 0 1 1.25,2.45 3.41,3.41 0 0 1 -1,2.6 4.09,4.09 0 0 1 -2.92,1 6.83,6.83 0 0 1 -0.77,-0.08 1.94,1.94 0 0 0 1.17,1.71 5.45,5.45 0 0 0 2.48,0.55 h 2.23 v 2.45 H 596 A 2.75,2.75 0 0 0 593.74,44.81 3.27,3.27 0 0 0 593,47 v 4.67 h 5.07 a 2.53,2.53 0 0 0 2,-0.68 2.94,2.94 0 0 0 0.61,-2 V 32.76 h 5.85 v 16.53 a 5,5 0 0 1 -0.54,2.54 3.07,3.07 0 0 1 -1.75,1.34 10.86,10.86 0 0 1 -3.4,0.41 h -13.7 z m 7,-9.35 a 2.15,2.15 0 0 0 0.54,-1.57 2.21,2.21 0 0 0 -0.54,-1.58 1.9,1.9 0 0 0 -2.69,0 2.21,2.21 0 0 0 -0.54,1.58 2.15,2.15 0 0 0 0.54,1.57 1.95,1.95 0 0 0 2.69,0 z" class="b212354b-461f-4502-a52d-fd77ff8a4ca0"></path><path style="stroke-width:4.303" id="path22" d="m 598.66,27.81 a 3.88,3.88 0 0 1 -1.11,-3 3.62,3.62 0 0 1 1.34,-3 12.51,12.51 0 0 1 3.81,-1.81 l 1.34,-0.41 a 2.34,2.34 0 0 0 1.15,-0.77 1.71,1.71 0 0 0 0.39,-1 h 3.26 c -0.05,1.71 -0.73,2.78 -2,3.2 l -3.62,1.17 a 8.37,8.37 0 0 0 -1,0.45 q -0.48,0.27 -0.45,0.45 a 2.39,2.39 0 0 1 0.85,-0.19 1.49,1.49 0 0 1 0.38,0 2.44,2.44 0 0 1 1.73,0.92 3.15,3.15 0 0 1 0.58,1.94 2.73,2.73 0 0 1 -1.12,2.24 4,4 0 0 1 -2.61,0.85 4.12,4.12 0 0 1 -2.92,-1.04 z m 4.27,-0.92 a 1.81,1.81 0 0 0 0.42,-1.28 1.65,1.65 0 0 0 -0.42,-1.19 1.49,1.49 0 0 0 -1.08,-0.43 1.37,1.37 0 0 0 -1,0.43 1.68,1.68 0 0 0 -0.4,1.19 1.85,1.85 0 0 0 0.4,1.28 1.31,1.31 0 0 0 1,0.45 1.43,1.43 0 0 0 1.08,-0.45 z" class="b212354b-461f-4502-a52d-fd77ff8a4ca0"></path><path style="stroke-width:4.303" id="path24" d="m 463.18,115.29 q -8.79,7 -25.11,7 H 417.21 V 159.5 H 396.42 V 60.92 h 43 q 14.86,0 23.71,7.42 8.85,7.42 8.84,23 0.03,16.93 -8.79,23.95 z m -16,-34.53 q -4,-3.2 -11.14,-3.19 h -18.83 v 28.22 h 18.86 q 7.17,0 11.14,-3.44 3.97,-3.44 4,-10.93 -0.02,-7.47 -4,-10.66 z" class="b212354b-461f-4502-a52d-fd77ff8a4ca0"></path><path style="stroke-width:4.303" id="path26" d="M 511.76,102.61 A 31,31 0 0 0 519.4,101 q 4.13,-1.69 4.12,-5.27 c 0,-2.91 -1,-4.91 -3.16,-6 -2.16,-1.09 -5.2,-1.65 -9.28,-1.65 q -6.87,0 -9.73,3.25 a 13.24,13.24 0 0 0 -2.72,6.5 h -18.44 q 0.6,-9.3 5.39,-15.28 7.6,-9.36 26.14,-9.37 a 47.78,47.78 0 0 1 21.42,4.62 q 9.38,4.62 9.37,17.43 v 32.51 q 0,3.39 0.13,8.19 0.21,3.65 1.14,4.95 a 6.89,6.89 0 0 0 2.82,2.12 v 2.73 h -20.8 a 19.89,19.89 0 0 1 -1.2,-4 q -0.35,-1.89 -0.54,-4.29 a 38.94,38.94 0 0 1 -9.18,7.09 28.48,28.48 0 0 1 -14,3.44 q -10,0 -16.5,-5.49 -6.5,-5.49 -6.51,-15.57 0,-13.08 10.47,-18.93 5.74,-3.18 16.9,-4.55 z m 11.69,8.65 a 21.28,21.28 0 0 1 -3.7,1.79 32.74,32.74 0 0 1 -5.14,1.27 l -4.35,0.78 a 29.43,29.43 0 0 0 -8.79,2.53 8.42,8.42 0 0 0 -4.47,7.87 c 0,3.17 0.92,5.45 2.76,6.86 a 10.69,10.69 0 0 0 6.71,2.11 A 20.43,20.43 0 0 0 518,131 q 5.28,-3.51 5.48,-12.81 z" class="b212354b-461f-4502-a52d-fd77ff8a4ca0"></path><path style="stroke-width:4.303" id="path28" d="m 606.32,72.78 -23.77,86.78 h -19.49 l 5.36,-24.81 -19,-62 h 20.81 l 9,26.26 6.77,-26.28 z" class="b212354b-461f-4502-a52d-fd77ff8a4ca0"></path><path style="stroke-width:4.303" id="path30" d="M 637.45,7 V 208.15 H 7 V 7 h 630.45 m 7,-7 H 0 v 215.15 h 644.45 z" class="b212354b-461f-4502-a52d-fd77ff8a4ca0"></path><path style="stroke-width:4.303" id="path32" d="m 173.65,98.23 q -7.83,0 -11.38,5.93 a 27.31,27.31 0 0 0 -3.55,14.3 q 0,8 3.55,13.41 3.55,5.41 11.29,5.36 8.48,0 11.63,-6.37 a 31.47,31.47 0 0 0 3.16,-14.19 q 0,-7 -2.28,-11.47 -3.6,-6.97 -12.42,-6.97 z" class="b212354b-461f-4502-a52d-fd77ff8a4ca0"></path><path style="stroke-width:4.303" id="path34" d="m 313.4,98.52 q -9,0 -12.32,8.8 a 34.18,34.18 0 0 0 -1.78,12 24.8,24.8 0 0 0 1.78,9.93 q 3.36,7.83 12.32,7.82 a 12.4,12.4 0 0 0 10.07,-5 q 4,-5 4,-14.86 a 27.14,27.14 0 0 0 -1.78,-10.36 q -3.34,-8.34 -12.29,-8.33 z" class="b212354b-461f-4502-a52d-fd77ff8a4ca0"></path><path style="stroke-width:4.303" id="path36" d="m 36.68,60.92 v 98.64 h 351 V 60.92 Z m 65.8,46.57 q -5.13,6 -15.7,6 h -22 v 29.25 h -9.53 v -56.1 h 9.54 v 18.94 h 18.85 q 6.38,0 10.35,-2.68 3.97,-2.68 4,-9.47 0,-7.64 -5.72,-10.36 A 20.67,20.67 0 0 0 83.66,81.61 H 55.25 v -8.06 h 31.51 q 9.36,0 15.1,5.21 5.74,5.21 5.75,14.62 a 21.06,21.06 0 0 1 -5.13,14.11 z m 42.4,-7.14 c -0.51,-0.09 -1,-0.15 -1.41,-0.19 -0.41,-0.04 -0.9,0 -1.41,0 q -6.52,0 -10,4.12 a 14.25,14.25 0 0 0 -3.5,9.49 v 29 H 119.9 V 92.3 h 8.2 v 8.7 c 0.67,-1.69 2.32,-3.76 4.94,-6.19 a 12.93,12.93 0 0 1 9.06,-3.65 c 0.16,0 0.43,0 0.82,0 l 2,0.18 z m 46.48,36.23 q -6,7.95 -18.61,7.95 -10.53,0 -16.72,-7 -6.19,-7 -6.18,-18.9 0,-12.7 6.52,-20.23 6.52,-7.53 17.52,-7.53 a 23.22,23.22 0 0 1 16.66,6.49 q 6.81,6.49 6.81,19.11 0,12.15 -6,20.11 z m 86.64,6.16 h -9 v -35 q 0,-5 -2.57,-6.92 a 10.24,10.24 0 0 0 -6.25,-1.89 12.53,12.53 0 0 0 -8.75,3.35 q -3.67,3.35 -3.67,11.16 v 29.34 h -8.78 v -32.96 q 0,-5.13 -1.24,-7.49 c -1.32,-2.35 -3.76,-3.53 -7.34,-3.53 a 12.75,12.75 0 0 0 -8.89,3.72 q -4,3.72 -4,13.47 v 26.75 h -8.63 V 92.3 h 8.54 v 7.16 A 28.39,28.39 0 0 1 223,94 a 17,17 0 0 1 9.68,-2.87 q 6.15,0 9.88,3 a 15.45,15.45 0 0 1 3.84,5 18.55,18.55 0 0 1 6.76,-6 19.15,19.15 0 0 1 8.72,-2 q 10.36,0 14.1,7.35 2,3.95 2,10.64 z M 327.55,140 a 20.18,20.18 0 0 1 -13,4.48 18,18 0 0 1 -9.77,-2.5 22.46,22.46 0 0 1 -5.16,-4.85 v 18.22 H 291 V 92.53 h 8.44 v 6.69 a 20.8,20.8 0 0 1 5.68,-5.32 18.54,18.54 0 0 1 10.28,-2.83 19.52,19.52 0 0 1 14.86,6.57 q 6.11,6.57 6.1,18.77 0,16.49 -8.81,23.59 z M 366,99.22 h -8.2 v 32.92 c 0,1.76 0.61,2.94 1.82,3.54 a 8,8 0 0 0 3.36,0.51 h 1.34 q 0.72,0 1.68,-0.15 v 6.73 a 19.2,19.2 0 0 1 -3.09,0.61 29,29 0 0 1 -3.48,0.19 q -6,0 -8.2,-3 a 13.29,13.29 0 0 1 -2.15,-7.89 V 99.22 h -7 V 92.3 h 7 V 78.22 h 8.72 V 92.3 h 8.2 z" class="b212354b-461f-4502-a52d-fd77ff8a4ca0"></path></g></g></svg> 