<svg width="761" height="228" viewBox="0 0 761 228" fill="none" xmlns="http://www.w3.org/2000/svg">
<path d="M595.51 146.42V162.76H624.47V175.01H595.53V189.88H627.86V202.7H581.32V133.69H626.3V146.43H595.52L595.51 146.42Z" fill="#FFFEFE"/>
<path d="M429.34 202.68H428.53C424.13 202.68 419.73 202.67 415.33 202.69C414.71 202.69 414.42 202.53 414.2 201.89C412.56 197.12 410.87 192.37 409.22 187.61C409.03 187.06 408.78 186.86 408.2 186.86C400.18 186.88 392.17 186.88 384.15 186.86C383.53 186.86 383.29 187.06 383.08 187.65C381.4 192.37 379.67 197.08 377.96 201.8C377.86 202.07 377.76 202.33 377.64 202.64H363.72C364.45 200.73 365.17 198.87 365.89 197.01C373.96 176.16 382.04 155.3 390.09 134.44C390.34 133.8 390.64 133.6 391.3 133.61C394.84 133.65 398.38 133.64 401.92 133.61C402.45 133.61 402.71 133.75 402.92 134.29C411.63 156.84 420.37 179.39 429.09 201.94C429.17 202.15 429.23 202.37 429.33 202.68H429.34ZM396.25 151.24C396.19 151.24 396.14 151.22 396.08 151.22C393.22 159.2 390.36 167.19 387.49 175.22H404.74C401.9 167.19 399.07 159.21 396.25 151.24Z" fill="#FFFEFE"/>
<path d="M318.59 133.69C318.79 133.67 318.97 133.64 319.14 133.64C328.42 133.66 337.7 133.56 346.98 133.74C352.72 133.85 358.02 135.57 362.49 139.38C365.98 142.35 367.93 146.17 368.61 150.65C369.24 154.81 369.07 158.93 367.61 162.91C365.63 168.32 361.65 171.75 356.44 173.88C353.03 175.27 349.45 175.86 345.78 175.89C341.36 175.93 336.93 175.91 332.5 175.91C332.27 175.91 332.05 175.91 331.74 175.91V202.71H318.59V133.7V133.69ZM331.73 163.84C331.9 163.86 332 163.88 332.1 163.88C336.47 163.88 340.85 163.93 345.22 163.83C346.69 163.8 348.19 163.5 349.61 163.1C352.31 162.35 354.27 160.73 354.95 157.87C355.42 155.89 355.43 153.92 354.95 151.94C354.44 149.84 353.2 148.34 351.25 147.41C349.66 146.64 347.97 146.18 346.22 146.14C341.52 146.05 336.82 146.05 332.12 146.02C332 146.02 331.88 146.07 331.74 146.1V163.83L331.73 163.84Z" fill="#FFFEFE"/>
<path d="M459.33 202.7H446.15C446.15 202.37 446.15 202.06 446.15 201.76C446.15 192.63 446.15 183.5 446.13 174.38C446.13 173.89 445.97 173.34 445.72 172.93C437.84 160.15 429.94 147.38 422.05 134.61C421.88 134.33 421.71 134.05 421.49 133.67C421.85 133.65 422.09 133.63 422.33 133.63C426.81 133.63 431.28 133.64 435.76 133.61C436.35 133.61 436.65 133.81 436.95 134.32C442.07 143 447.21 151.66 452.35 160.33C452.49 160.57 452.64 160.81 452.84 161.14C453.05 160.81 453.23 160.54 453.39 160.26C458.56 151.64 463.73 143.03 468.87 134.4C469.22 133.81 469.6 133.61 470.26 133.62C474.56 133.65 478.86 133.64 483.16 133.64H484.13C483.9 134.04 483.74 134.32 483.57 134.59C475.65 147.35 467.73 160.1 459.83 172.87C459.54 173.34 459.36 173.97 459.35 174.53C459.32 183.61 459.33 192.68 459.33 201.76V202.72V202.7Z" fill="#FFFEFE"/>
<path d="M760.94 146.44H739.62V202.7H726.44V146.49H705.19V133.69H760.95V146.44H760.94Z" fill="#FFFEFE"/>
<path d="M553.83 133.69V133.61H546.7L528.99 182.33L510.26 133.69H506.18H493.03V149.02V202.7H506.18V154.05L522.37 197.37H534.55L550.78 156.68V202.7H563.93V149.02V133.69H553.83Z" fill="#FFFEFE"/>
<path d="M684.08 133.69V182.9L653.96 133.69H641.89V202.7H653.96V156L684.08 202.7H696.15V133.69H684.08Z" fill="#FFFEFE"/>
<path d="M739.94 75.58C746.92 86.57 753.88 97.52 760.94 108.62H759.92C754.78 108.62 749.65 108.61 744.51 108.64C743.87 108.64 743.53 108.44 743.19 107.88C737.28 97.97 731.34 88.07 725.44 78.16C725.07 77.54 724.67 77.32 723.98 77.33C721.34 77.37 718.7 77.35 715.97 77.35V108.56H700.71V28.75C700.96 28.73 701.16 28.69 701.36 28.69C712.1 28.71 722.84 28.62 733.58 28.8C739.72 28.91 745.52 30.54 750.59 34.35C755.58 38.1 758.09 43.27 758.67 49.51C759.1 54.12 758.72 58.64 756.78 62.89C754.16 68.65 749.64 72.19 743.96 74.3C742.68 74.78 741.35 75.12 739.92 75.57L739.94 75.58ZM715.98 63.14C716.35 63.16 716.61 63.18 716.87 63.18C721.54 63.18 726.2 63.2 730.87 63.17C732.16 63.17 733.45 63.05 734.73 62.87C740.3 62.06 743.25 58.44 742.99 52.75C742.83 49.11 741.45 46.2 738 44.83C736.46 44.22 734.78 43.75 733.15 43.7C727.58 43.53 722 43.57 716.42 43.53C716.28 43.53 716.15 43.59 715.98 43.63V63.15V63.14Z" fill="#FFFEFE"/>
<path d="M455.66 108.59H440.46V76.02H407.53V108.56H392.29V28.77H407.48V61.03H440.42V28.76H455.67V108.59H455.66Z" fill="#FFFEFE"/>
<path d="M543.51 108.62C539.21 108.62 535.05 108.62 530.88 108.62C529.62 108.62 528.35 108.58 527.09 108.64C526.46 108.67 526.18 108.45 525.96 107.83C524.05 102.31 522.08 96.82 520.18 91.3C519.92 90.55 519.58 90.32 518.81 90.32C509.56 90.35 500.32 90.35 491.07 90.32C490.38 90.32 490.06 90.49 489.8 91.2C487.85 96.67 485.85 102.12 483.86 107.57C483.74 107.91 483.6 108.24 483.47 108.59H467.35C467.48 108.21 467.58 107.87 467.71 107.55C477.8 81.56 487.89 55.57 497.96 29.58C498.21 28.93 498.5 28.66 499.23 28.67C503.37 28.71 507.51 28.71 511.65 28.67C512.31 28.67 512.61 28.87 512.86 29.51C522.96 55.59 533.09 81.66 543.21 107.73C543.31 107.98 543.38 108.23 543.51 108.61V108.62ZM494.93 76.81H514.94C511.63 67.49 508.35 58.25 504.99 48.78C501.58 58.28 498.27 67.5 494.93 76.81Z" fill="#FFFEFE"/>
<path d="M341.56 43.53H318.59V28.76H379.92V43.47H356.87V108.56H341.57V43.53H341.56Z" fill="#FFFEFE"/>
<path d="M552.86 28.74H568V108.56H552.86V28.74Z" fill="#FFFEFE"/>
<path d="M688.07 107.4L676.2 95.6C677.67 93.83 678.98 91.89 680.12 89.77C683.43 83.59 685.09 76.59 685.09 68.76C685.09 60.93 683.52 54.13 680.37 48.04C677.22 41.95 672.65 37.2 666.66 33.8C660.66 30.4 653.93 28.69 646.46 28.69C635.06 28.69 625.75 32.31 618.54 39.56C611.33 46.81 607.72 56.84 607.72 69.65C607.72 76.42 609.26 82.85 612.36 88.92C615.45 94.99 619.99 99.78 625.99 103.29C631.99 106.8 638.79 108.55 646.41 108.55C653.44 108.55 659.98 106.96 666.05 103.79C666.24 103.69 666.41 103.58 666.59 103.48L679.3 116.12L688.07 107.4ZM646.41 96.11C641.02 96.11 636.42 94.95 632.35 92.57C628.43 90.27 625.55 87.24 623.54 83.3C621.33 78.96 620.25 74.49 620.25 69.65C620.25 60.16 622.6 53.19 627.45 48.32C632.32 43.42 638.36 41.14 646.47 41.14C651.77 41.14 656.35 42.27 660.46 44.61C664.34 46.81 667.21 49.79 669.24 53.73C671.48 58.07 672.57 62.99 672.57 68.76C672.57 74.53 671.43 79.52 669.08 83.91C668.54 84.92 667.94 85.86 667.3 86.74L655.19 74.7L646.42 83.42L657.21 94.15C653.82 95.46 650.27 96.11 646.42 96.11H646.41Z" fill="#FFFEFE"/>
<path d="M59 1.20998C62.54 1.02998 66.09 0.77 69.63 1.04C101.22 1.07 132.82 1.03998 164.41 1.04998C178.61 1.11998 193.31 4.17999 205.06 12.53C214.96 19.45 221.96 29.99 225.62 41.41C227.88 48.39 229.11 55.71 229.31 63.04C229.28 94.32 229.32 125.61 229.29 156.89C252.11 178.9 274.98 200.87 297.81 222.87C298.57 223.62 299.6 224.59 299.3 225.77C298.75 226.83 297.37 226.93 296.32 227.05C220.76 227.03 145.2 227.05 69.65 227.05C56.38 227.12 42.77 225.15 30.87 218.98C23.95 215.41 17.77 210.36 13.03 204.18C5.09 193.89 1.11001 180.98 0.24001 168.13C-0.0699904 164.97 0.0900035 161.79 0.140004 158.62C0.140004 123.6 0.140004 88.58 0.140004 53.56C0.400004 42.82 3.47 31.9 10.14 23.34C16.8 14.63 26.61 8.83998 36.9 5.45998C44.05 3.09998 51.51 1.79998 59 1.20998ZM45.71 30.26C40.7 31.89 36.09 35.05 33.22 39.52C30.28 44.08 28.91 49.6 29.08 55C29.08 70.24 29.08 85.48 29.08 100.72C42.38 100.72 55.68 100.73 68.99 100.72V78.89C68.95 75.29 70.55 71.61 73.52 69.5C76.51 67.34 80.33 66.77 83.95 66.86C90.01 66.86 96.07 66.86 102.13 66.86C102.16 54.13 102.12 41.4 102.15 28.67C88.38 28.63 74.61 28.67 60.85 28.65C55.77 28.16 50.57 28.68 45.71 30.26ZM129.04 28.64C128.98 41.38 129.02 54.12 129.02 66.86C135.44 66.87 141.87 66.86 148.29 66.86C151.72 66.88 155.33 67.64 158.06 69.83C160.77 71.97 162.2 75.47 162.16 78.88C162.16 86.16 162.09 93.44 162.12 100.72C175.44 100.74 188.76 100.72 202.07 100.72V54.27C202.16 50.58 201.57 46.86 200.27 43.4C198.47 38.51 194.76 34.4 190.14 32.02C184.08 28.87 177.03 28.06 170.3 28.65C156.55 28.64 142.8 28.68 129.05 28.63L129.04 28.64ZM29.09 127.25C29.08 143.34 29.09 159.42 29.09 175.51C29.2 179.33 29.95 183.2 31.79 186.59C33.98 190.74 37.72 193.94 41.95 195.9C48.04 198.75 54.9 199.62 61.56 199.32C75.09 199.33 88.62 199.32 102.14 199.32C102.14 186.59 102.15 173.85 102.14 161.12C95.71 161.12 89.29 161.12 82.87 161.12C79.44 161.11 75.83 160.34 73.1 158.15C70.39 156 68.97 152.5 69.01 149.08V127.25C55.71 127.25 42.41 127.25 29.1 127.25H29.09ZM162.07 128.82C162.03 135.69 162.06 142.56 162.06 149.42C162.17 152.35 161.42 155.44 159.39 157.64C157.12 160.03 153.73 161.07 150.5 161.03C143.08 161 135.66 161.07 128.24 160.99C128.07 162.65 128.2 164.31 128.16 165.98C128.15 176.91 128.19 187.83 128.14 198.76C131.29 198.88 134.45 198.78 137.6 198.81C169.15 198.79 200.7 198.85 232.25 198.78C218.69 185.16 205.04 171.64 191.47 158.03C181.63 148.34 172 138.42 162.08 128.82H162.07Z" fill="white"/>
<path d="M162.07 128.82C172 138.42 181.62 148.34 191.46 158.03C205.03 171.64 218.68 185.16 232.24 198.78C200.69 198.85 169.14 198.79 137.59 198.81C134.43 198.78 131.28 198.88 128.13 198.76C128.18 187.83 128.13 176.91 128.15 165.98C128.19 164.31 128.06 162.64 128.23 160.99C135.65 161.07 143.07 160.99 150.49 161.03C153.72 161.07 157.12 160.03 159.38 157.64C161.41 155.44 162.16 152.35 162.05 149.42C162.05 142.55 162.02 135.68 162.06 128.82H162.07Z" fill="#54A69A"/>
</svg>
